# xmcd
#
# Track frame offsets: 
#        150
#        14409
#        25591
#        37169
#        48587
#        59645
#        73619
#        86556
#        98677
#        112555
#
# Disc length: 1669 seconds
#
# Revision: 0
# Processed by: cddbd v1.5.2PL0 Copyright (c) Steve Scherf et al.
# Submitted via: ExactAudioCopyFreeDBPlugin 1.0
#
DISCID=7b06830a
DTITLE=Piri - Vocês querem mate?
DYEAR=1970
DGENRE=Brasil
TTITLE0=Reza brava
TTITLE1=As incríveis peripécias de Danilo
TTITLE2=O som do Roberto
TTITLE3=Sombra morta
TTITLE4=Vocês querem mate?
TTITLE5=Cupído esculpido
TTITLE6=Chão vermelho
TTITLE7=Lágrimas
TTITLE8=Espiral
TTITLE9=Porta do Sol
EXTD=
EXTT0=
EXTT1=
EXTT2=
EXTT3=
EXTT4=
EXTT5=
EXTT6=
EXTT7=
EXTT8=
EXTT9=
PLAYORDER=
